<?xml version="1.0" encoding="UTF-8"?>
<svg id="Layer_1" data-name="Layer 1" xmlns="http://www.w3.org/2000/svg" xmlns:xlink="http://www.w3.org/1999/xlink" viewBox="0 0 384 298.83">
  <defs>
    <style>
      .cls-1 {
        fill: url(#linear-gradient-2);
      }

      .cls-2 {
        fill: url(#linear-gradient-10);
      }

      .cls-3 {
        fill: url(#linear-gradient-4);
      }

      .cls-4 {
        fill: url(#linear-gradient-3);
      }

      .cls-5 {
        fill: url(#linear-gradient-5);
      }

      .cls-6 {
        fill: url(#linear-gradient-8);
      }

      .cls-7 {
        fill: url(#linear-gradient-7);
      }

      .cls-8 {
        fill: url(#linear-gradient-9);
      }

      .cls-9 {
        fill: url(#linear-gradient-11);
      }

      .cls-10 {
        fill: url(#linear-gradient-6);
      }

      .cls-11 {
        fill: url(#linear-gradient);
      }
    </style>
    <linearGradient id="linear-gradient" x1="20.78" y1="-14.96" x2="20.78" y2="324.77" gradientUnits="userSpaceOnUse">
      <stop offset="0" stop-color="#b58e3e"/>
      <stop offset="0" stop-color="#936e2a"/>
      <stop offset=".23" stop-color="#ffd87b"/>
      <stop offset=".41" stop-color="#e5bc68"/>
      <stop offset=".59" stop-color="#ffea93"/>
      <stop offset=".77" stop-color="#d3a84c"/>
      <stop offset="1" stop-color="#a27a2c"/>
    </linearGradient>
    <linearGradient id="linear-gradient-2" x1="69.79" y1="-14.96" x2="69.79" y2="324.77" xlink:href="#linear-gradient"/>
    <linearGradient id="linear-gradient-3" x1="132.92" y1="-14.96" x2="132.92" y2="324.77" xlink:href="#linear-gradient"/>
    <linearGradient id="linear-gradient-4" x1="218.09" y1="-14.96" x2="218.09" y2="324.77" xlink:href="#linear-gradient"/>
    <linearGradient id="linear-gradient-5" x1="291.21" y1="-14.96" x2="291.21" y2="324.77" xlink:href="#linear-gradient"/>
    <linearGradient id="linear-gradient-6" x1="363.22" y1="-14.96" x2="363.22" y2="324.77" xlink:href="#linear-gradient"/>
    <linearGradient id="linear-gradient-7" x1="202.74" y1="-14.96" x2="202.74" y2="324.77" xlink:href="#linear-gradient"/>
    <linearGradient id="linear-gradient-8" x1="192" y1="-14.96" x2="192" y2="324.77" xlink:href="#linear-gradient"/>
    <linearGradient id="linear-gradient-9" x1="268.83" y1="-14.96" x2="268.83" y2="324.77" xlink:href="#linear-gradient"/>
    <linearGradient id="linear-gradient-10" x1="90.29" y1="-14.96" x2="90.29" y2="324.77" xlink:href="#linear-gradient"/>
    <linearGradient id="linear-gradient-11" x1="224.14" y1="-14.96" x2="224.14" y2="324.77" xlink:href="#linear-gradient"/>
  </defs>
  <path class="cls-11" d="M38.16,297.8H0v-.74h.94c2.58,0,4.67-2.07,4.72-4.63v-40.85c-.05-2.57-2.14-4.63-4.72-4.63H.01v-.74s22.38,0,22.38,0v.74h-.94c-2.58,0-4.67,2.07-4.72,4.63v43.07h9.67c7.36,0,12.14-4.57,14.42-11.89h.74l-3.4,15.04Z"/>
  <path class="cls-1" d="M64.04,255.42c3.46-1.32,4.8-5.21,1.83-8.61-2.06-2.36-2.4-6.1-.25-8.15,2.47-2.39,7.26-1.56,8.92,2.19,3.49,7.78-2.72,16.44-10.25,15.42l-.25-.85Z"/>
  <path class="cls-4" d="M157.51,276.29l.71,12.68c-3.3,5.45-9.58,9.86-20.71,9.86-18.1-.07-29.9-10.07-29.9-26.9s11.39-26.75,30.11-26.75c7.85,0,14.15,1.82,18.33,3.99l.14,12.65h-.61c-2.68-9.68-9.01-13.53-17.12-13.53-11.69,0-18.83,9-18.83,23.48s6.91,23.67,17.88,23.96c11.34-.01,17.09-4.95,19.38-19.44h.62Z"/>
  <path class="cls-3" d="M215.97,246.21c8.93,0,17.53,3.63,17.53,13.9,0,6.2-3.7,13.17-12.07,14,3.11,1.02,5.88,3.95,7.52,6.53.22.36,4.64,7.37,7.42,10.83,3.18,4.05,5.28,5.53,9.12,5.59v.74h-7.18c-8.06,0-13.92-1.74-17.31-7.64-1.79-3.12-5.12-10.42-6.14-12.62-1.43-3.08-3.08-4.64-4.99-4.97v-.7h2.25c3.96-.04,7.99-2.06,9.31-8.52.17-.9.34-2.08.27-3.57-.29-7.05-3.85-10.2-8.69-10.32-1.95-.08-4.67,0-5.59-.03v42.99c.05,2.57,2.14,4.63,4.73,4.63h.92v.74s-22.4,0-22.4,0v-.74h.94c2.57,0,4.65-2.05,4.72-4.6v-40.89c-.05-2.57-2.14-4.63-4.71-4.63h-.94v-.73s25.28,0,25.28,0Z"/>
  <path class="cls-5" d="M308.59,297.8h-38.16v-.74h.94c2.58,0,4.67-2.07,4.72-4.63v-41.09c-.17-2.46-2.21-4.4-4.71-4.4h-.93v-.73s28.24,0,28.24,0c3.18-.03,7.43-.76,8.8-1.34v12.89h-.74v-.88c0-4.43-2.78-7.33-7.2-7.52h-12.4v21.44h9.77c3.62-.07,6.26-2.73,6.25-6.32v-.64h.72s0,17.02,0,17.02h-.72v-.65c0-3.56-2.59-6.2-6.16-6.31h-9.86v20.74h9.67c7.36,0,12.14-4.57,14.42-11.89h.74l-3.4,15.04Z"/>
  <path class="cls-10" d="M380.6,297.8h-38.16v-.74h.94c2.58,0,4.67-2.07,4.72-4.63v-41.09c-.17-2.46-2.21-4.4-4.71-4.4h-.93v-.73s28.24,0,28.24,0c3.18-.03,7.43-.76,8.8-1.34v12.89h-.74v-.88c0-4.43-2.78-7.33-7.2-7.52h-12.4v21.44h9.77c3.62-.07,6.26-2.73,6.25-6.32v-.64h.72s0,17.02,0,17.02h-.72v-.65c0-3.56-2.59-6.2-6.16-6.31h-9.86v20.74h9.67c7.36,0,12.14-4.57,14.42-11.89h.74l-3.4,15.04Z"/>
  <g>
    <g>
      <path class="cls-7" d="M269.89,172.38l-14.65,40.61h-119.64l.04-2.51h3.18c8.8,0,15.94-7.05,16.1-15.81V18.32c-.17-8.76-7.31-15.81-16.1-15.81h-3.18l-.04-2.51h55l-.04,2.51h-3.18c-8.8,0-15.94,7.05-16.1,15.81v186.98h51.48c26.64,0,36.87-13.78,44.63-32.92h2.52Z"/>
      <path class="cls-6" d="M264.82,52.02c-14.72-9.69-34.82-16.97-59.46-16.97-8.79,0-17.11.93-24.85,2.72-13.41,3.07-25.13,8.7-34.87,16.49-20.03,16.01-31.53,41.18-31.53,72.05s11.63,56,31.09,72c.26-.68.42-1.42.45-2.19v-18.99c-8.15-13.64-12.68-30.96-12.68-51.08s4.47-37.29,12.68-50.88c8.18-13.59,20.06-23.47,34.87-28.6,7.54-2.61,15.84-3.98,24.81-3.98,30.21.02,54.85,15.6,62.48,44.94h2.1l-5.08-35.5Z"/>
    </g>
    <g>
      <polygon class="cls-8" points="320.56 212.99 281.65 212.99 281.65 208.37 315.93 208.37 315.93 20.39 217.11 20.39 217.11 15.77 320.56 15.77 320.56 212.99"/>
      <polygon class="cls-2" points="115.44 212.99 63.44 212.99 63.44 15.77 117.13 15.77 117.13 20.39 68.07 20.39 68.07 208.37 115.44 208.37 115.44 212.99"/>
    </g>
  </g>
  <polygon class="cls-9" points="235.92 123.76 224.14 137.65 212.36 123.76 224.14 109.88 235.92 123.76"/>
</svg>