<?xml version="1.0" encoding="UTF-8"?>
<svg id="Layer_1" data-name="Layer 1" xmlns="http://www.w3.org/2000/svg" xmlns:xlink="http://www.w3.org/1999/xlink" viewBox="0 0 1085.4 285">
  <defs>
    <style>
      .cls-1 {
        fill: url(#linear-gradient-2);
      }

      .cls-2 {
        fill: url(#linear-gradient-10);
      }

      .cls-3 {
        fill: url(#linear-gradient-4);
      }

      .cls-4 {
        fill: url(#linear-gradient-3);
      }

      .cls-5 {
        fill: url(#linear-gradient-5);
      }

      .cls-6 {
        fill: url(#linear-gradient-8);
      }

      .cls-7 {
        fill: url(#linear-gradient-7);
      }

      .cls-8 {
        fill: url(#linear-gradient-9);
      }

      .cls-9 {
        fill: url(#linear-gradient-11);
      }

      .cls-10 {
        fill: url(#linear-gradient-6);
      }

      .cls-11 {
        fill: url(#linear-gradient);
      }
    </style>
    <linearGradient id="linear-gradient" x1="388.7" y1="-386.76" x2="388.7" y2="264.88" gradientUnits="userSpaceOnUse">
      <stop offset="0" stop-color="#b58e3e"/>
      <stop offset="0" stop-color="#936e2a"/>
      <stop offset=".23" stop-color="#ffd87b"/>
      <stop offset=".41" stop-color="#e5bc68"/>
      <stop offset=".59" stop-color="#ffea93"/>
      <stop offset=".77" stop-color="#d3a84c"/>
      <stop offset="1" stop-color="#a27a2c"/>
    </linearGradient>
    <linearGradient id="linear-gradient-2" x1="482.71" y1="-386.76" x2="482.71" y2="264.88" xlink:href="#linear-gradient"/>
    <linearGradient id="linear-gradient-3" x1="603.8" y1="-386.76" x2="603.8" y2="264.88" xlink:href="#linear-gradient"/>
    <linearGradient id="linear-gradient-4" x1="767.17" y1="-386.76" x2="767.17" y2="264.88" xlink:href="#linear-gradient"/>
    <linearGradient id="linear-gradient-5" x1="907.42" y1="-386.76" x2="907.42" y2="264.88" xlink:href="#linear-gradient"/>
    <linearGradient id="linear-gradient-6" x1="1045.55" y1="-386.76" x2="1045.55" y2="264.88" xlink:href="#linear-gradient"/>
    <linearGradient id="linear-gradient-7" x1="186.39" y1="-20.01" x2="186.39" y2="434.57" xlink:href="#linear-gradient"/>
    <linearGradient id="linear-gradient-8" x1="172.02" y1="-20.01" x2="172.02" y2="434.57" xlink:href="#linear-gradient"/>
    <linearGradient id="linear-gradient-9" x1="274.83" y1="-20.01" x2="274.83" y2="434.57" xlink:href="#linear-gradient"/>
    <linearGradient id="linear-gradient-10" x1="35.92" y1="-20.01" x2="35.92" y2="434.57" xlink:href="#linear-gradient"/>
    <linearGradient id="linear-gradient-11" x1="215.02" y1="-20.01" x2="215.02" y2="434.57" xlink:href="#linear-gradient"/>
  </defs>
  <path class="cls-11" d="M422.04,213.14h-73.19l.02-1.42h1.79c4.95,0,8.96-3.96,9.05-8.89v-78.35c-.09-4.93-4.11-8.89-9.06-8.89h-1.79l-.02-1.42h42.94l-.02,1.42h-1.79c-4.95,0-8.96,3.96-9.06,8.89v82.61h18.56c14.12,0,23.29-8.77,27.67-22.8h1.42l-6.52,28.85Z"/>
  <path class="cls-1" d="M471.68,131.86c6.64-2.53,9.22-10,3.51-16.52-3.96-4.53-4.6-11.7-.48-15.64,4.74-4.58,13.92-2.99,17.11,4.2,6.69,14.93-5.23,31.53-19.66,29.58l-.48-1.63Z"/>
  <path class="cls-4" d="M650.97,171.89l1.37,24.33c-6.33,10.46-18.38,18.91-39.72,18.91-34.71-.14-57.35-19.32-57.35-51.59s21.85-51.31,57.75-51.31c15.06,0,27.14,3.5,35.15,7.66l.28,24.25h-1.18c-5.15-18.56-17.29-25.95-32.83-25.96-22.42,0-36.12,17.27-36.12,45.04s13.25,45.4,34.3,45.96c21.75-.02,32.78-9.5,37.18-37.29h1.18Z"/>
  <path class="cls-3" d="M763.11,114.19c17.14,0,33.62,6.97,33.62,26.66,0,11.9-7.1,25.26-23.14,26.86,5.97,1.96,11.28,7.57,14.42,12.52.43.69,8.91,14.13,14.23,20.77,6.1,7.76,10.12,10.61,17.49,10.72v1.42h-13.77c-15.46,0-26.71-3.34-33.2-14.65-3.44-5.99-9.81-19.98-11.78-24.21-2.75-5.9-5.91-8.89-9.57-9.53v-1.34h4.31c7.6-.08,15.33-3.96,17.85-16.34.33-1.72.65-4,.52-6.84-.56-13.52-7.39-19.57-16.67-19.8-3.75-.16-8.95,0-10.72-.05v82.46c.09,4.92,4.1,8.89,9.08,8.89h1.76l.02,1.41h-42.98l.02-1.41h1.79c4.93,0,8.93-3.93,9.05-8.82v-78.42c-.09-4.92-4.11-8.89-9.04-8.88h-1.81l-.02-1.4h48.51Z"/>
  <path class="cls-5" d="M940.76,213.14h-73.19l.02-1.42h1.79c4.95,0,8.96-3.96,9.06-8.89v-78.81c-.32-4.71-4.24-8.44-9.04-8.44h-1.79l-.02-1.4h54.19c6.09-.06,14.24-1.46,16.87-2.57v24.72l-1.43-.02v-1.66c.02-8.5-5.33-14.06-13.81-14.42h-23.79v41.13h18.74c6.94-.13,12.01-5.23,11.99-12.12v-1.22l1.38-.02v32.67l-1.38-.02v-1.23c.02-6.82-4.96-11.89-11.81-12.11h-18.92v39.78h18.56c14.12,0,23.28-8.77,27.67-22.8h1.41l-6.51,28.85Z"/>
  <path class="cls-10" d="M1078.89,213.14h-73.19l.02-1.42h1.79c4.95,0,8.96-3.96,9.06-8.89v-78.81c-.32-4.71-4.24-8.44-9.04-8.44h-1.79l-.02-1.4h54.19c6.09-.06,14.24-1.46,16.87-2.57v24.72l-1.43-.02v-1.66c.02-8.5-5.33-14.06-13.81-14.42h-23.79v41.13h18.74c6.94-.13,12.01-5.23,11.99-12.12v-1.22l1.38-.02v32.67l-1.38-.02v-1.23c.02-6.82-4.96-11.89-11.81-12.11h-18.92v39.78h18.56c14.12,0,23.28-8.77,27.67-22.8h1.41l-6.51,28.85Z"/>
  <g>
    <g>
      <path class="cls-7" d="M276.25,230.66l-19.61,54.34H96.55l.05-3.36h4.26c11.77,0,21.33-9.44,21.54-21.15V24.51c-.22-11.72-9.78-21.15-21.55-21.15h-4.26l-.05-3.36h73.59l-.05,3.36h-4.26c-11.77,0-21.33,9.44-21.55,21.15v250.19h68.89c35.64,0,49.33-18.44,59.71-44.05h3.37Z"/>
      <path class="cls-6" d="M269.46,69.61c-19.69-12.96-46.59-22.71-79.56-22.71-11.77,0-22.89,1.24-33.26,3.63-17.94,4.11-33.63,11.64-46.65,22.07-26.79,21.43-42.19,55.1-42.19,96.4s15.56,74.94,41.6,96.34c.35-.91.56-1.9.6-2.93v-25.41c-10.9-18.25-16.97-41.43-16.97-68.35s5.99-49.89,16.97-68.08c10.94-18.19,26.84-31.4,46.65-38.27,10.09-3.49,21.2-5.33,33.19-5.33,40.42.02,73.39,20.87,83.61,60.13h2.81l-6.79-47.5Z"/>
    </g>
    <g>
      <polygon class="cls-8" points="344.04 285 291.98 285 291.98 278.81 337.85 278.81 337.85 27.29 205.62 27.29 205.62 21.1 344.04 21.1 344.04 285"/>
      <polygon class="cls-2" points="69.58 285 0 285 0 21.1 71.84 21.1 71.84 27.29 6.19 27.29 6.19 278.81 69.58 278.81 69.58 285"/>
    </g>
  </g>
  <polygon class="cls-9" points="230.79 165.6 215.02 184.18 199.26 165.6 215.02 147.02 230.79 165.6"/>
</svg>